<svg id="visual" viewBox="0 0 1920 1080" width="1920" height="1080" xmlns="http://www.w3.org/2000/svg" xmlns:xlink="http://www.w3.org/1999/xlink" version="1.1"><rect x="0" y="0" width="1920" height="1080" fill="#002233"></rect><defs><linearGradient id="grad1_0" x1="43.8%" y1="0%" x2="100%" y2="100%"><stop offset="14.444444444444446%" stop-color="#002233" stop-opacity="1"></stop><stop offset="85.55555555555554%" stop-color="#002233" stop-opacity="1"></stop></linearGradient></defs><defs><linearGradient id="grad2_0" x1="0%" y1="0%" x2="56.3%" y2="100%"><stop offset="14.444444444444446%" stop-color="#002233" stop-opacity="1"></stop><stop offset="85.55555555555554%" stop-color="#002233" stop-opacity="1"></stop></linearGradient></defs><g transform="translate(1920, 0)"><path d="M0 864C-97.4 860.7 -194.8 857.5 -262.4 807.4C-329.9 757.4 -367.5 660.7 -444.4 611.6C-521.2 562.6 -637.3 561.3 -699 507.8C-760.7 454.4 -768.1 348.9 -786.5 255.6C-805 162.2 -834.5 81.1 -864 0L0 0Z" fill="#18191a"></path></g><g transform="translate(0, 1080)"><path d="M0 -864C76.1 -813.5 152.2 -763 242.3 -745.6C332.3 -728.3 436.4 -744.1 507.8 -699C579.3 -653.9 618.3 -547.9 627 -455.5C635.7 -363.2 614.2 -284.4 648.6 -210.7C683.1 -137.1 773.5 -68.5 864 0L0 0Z" fill="#18191a"></path></g></svg>