<svg id="visual" viewBox="0 0 960 540" width="960" height="540" xmlns="http://www.w3.org/2000/svg" xmlns:xlink="http://www.w3.org/1999/xlink" version="1.1"><rect x="0" y="0" width="960" height="540" fill="#002233"></rect><path d="M0 377L20 383.8C40 390.7 80 404.3 120 404.7C160 405 200 392 240 390.8C280 389.7 320 400.3 360 403.8C400 407.3 440 403.7 480 403.3C520 403 560 406 600 411C640 416 680 423 720 417.8C760 412.7 800 395.3 840 390.2C880 385 920 392 940 395.5L960 399L960 541L940 541C920 541 880 541 840 541C800 541 760 541 720 541C680 541 640 541 600 541C560 541 520 541 480 541C440 541 400 541 360 541C320 541 280 541 240 541C200 541 160 541 120 541C80 541 40 541 20 541L0 541Z" fill="#18191a" stroke-linecap="round" stroke-linejoin="miter"></path></svg>